# xmcd CD database file
#
# Track frame offsets:
#	150
#	23100
#	42706
#	55951
#	66484
#	86903
#	103853
#	117803
#	133982
#	158127
#	177491
#	190016
#	214218
#	230277
#	253302
#	270665
#
# Disc length: 3763 seconds
#
# Revision: 0
# Processed by: cddbd v1.5.1PL0 Copyright (c) Steve Scherf et al.
# Submitted via: CDex 1.51
#
DISCID=f70eb110
DTITLE=Billy Watson - Madcap Extravaganza
DYEAR=2004
DGENRE=Blues
TTITLE0=Simmer Down Baby
TTITLE1=Zapatos Baratos
TTITLE2=You Just Don't Know
TTITLE3=Dark Harp
TTITLE4=Moonbeam On An Arabian Sea
TTITLE5=300 Lbs.
TTITLE6=Good Evening Everybody
TTITLE7=Popeye's Revenge
TTITLE8=Rollin' n Tumblin'
TTITLE9=Son Why?
TTITLE10=Drop Out Boogie
TTITLE11=Run Here Little Moma
TTITLE12=Tremelo
TTITLE13=Big Road Blues
TTITLE14=Yes Baby
TTITLE15=Creepin' Through The Creosote
EXTD=YEAR: 2004
EXTT0=
EXTT1=
EXTT2=
EXTT3=
EXTT4=
EXTT5=
EXTT6=
EXTT7=
EXTT8=
EXTT9=
EXTT10=
EXTT11=
EXTT12=
EXTT13=
EXTT14=
EXTT15=
PLAYORDER=
